<?xml version="1.0" encoding="UTF-8" standalone="no"?><svg xmlns="http://www.w3.org/2000/svg" xmlns:xlink="http://www.w3.org/1999/xlink" contentScriptType="application/ecmascript" contentStyleType="text/css" height="150px" preserveAspectRatio="none" style="width:633px;height:150px;background:#FFFFFF;" version="1.1" viewBox="0 0 633 150" width="633px" zoomAndPan="magnify"><defs/><g><ellipse cx="201.1007" cy="21.215" rx="52.6007" ry="14.715" style="stroke:#A80036;stroke-width:1.5;fill:none;"/><text fill="#000000" font-family="sans-serif" font-size="14" lengthAdjust="spacing" textLength="57" x="169.6007" y="24.9626">E: Event</text><ellipse cx="346.8265" cy="20.7566" rx="57.8265" ry="14.7566" style="stroke:#A80036;stroke-width:1.5;fill:none;"/><text fill="#000000" font-family="sans-serif" font-size="14" lengthAdjust="spacing" textLength="64" x="311.8265" y="24.5041">E0: Apply</text><line style="stroke:#A80036;stroke-width:1.5;" x1="400.0439" x2="384.0837" y1="15.6124" y2="31.5727"/><ellipse cx="116.0557" cy="120.4111" rx="110.0557" ry="24.4111" style="stroke:#A80036;stroke-width:1.5;fill:none;"/><text fill="#000000" font-family="sans-serif" font-size="14" lengthAdjust="spacing" textLength="186" x="23.0557" y="123.2578">E1: Version Control with git</text><line style="stroke:#A80036;stroke-width:1.5;" x1="217.3395" x2="191.9816" y1="111.9014" y2="137.2594"/><ellipse cx="347.1635" cy="120.6327" rx="86.1635" ry="19.6327" style="stroke:#A80036;stroke-width:1.5;fill:none;"/><text fill="#000000" font-family="sans-serif" font-size="14" lengthAdjust="spacing" textLength="133" x="280.6635" y="123.4794">E2: Github Projects</text><line style="stroke:#A80036;stroke-width:1.5;" x1="426.4595" x2="405.908" y1="113.7887" y2="134.3402"/><ellipse cx="547.7839" cy="120.3568" rx="79.7839" ry="18.3568" style="stroke:#A80036;stroke-width:1.5;fill:none;"/><text fill="#000000" font-family="sans-serif" font-size="14" lengthAdjust="spacing" textLength="118" x="487.0356" y="123.7613">E3: Intro to Trello</text><line style="stroke:#A80036;stroke-width:1.5;" x1="621.2086" x2="601.9392" y1="113.9576" y2="133.227"/><!--MD5=[eafd6081afc775571d539063ef63995e]
link E0 to E1--><path d="M318.21,34.15 C281.38,49.7 216.82,76.95 170.55,96.47 " fill="none" id="E0-to-E1" style="stroke:#A80036;stroke-width:1.0;"/><polygon fill="#A80036" points="165.85,98.46,175.6969,98.654,170.4582,96.5197,172.5925,91.2809,165.85,98.46" style="stroke:#A80036;stroke-width:1.0;"/><!--MD5=[78140ea141f4238fa3437051705103f0]
link E0 to E2--><path d="M347,36.39 C347,51.98 347,77.11 347,95.66 " fill="none" id="E0-to-E2" style="stroke:#A80036;stroke-width:1.0;"/><polygon fill="#A80036" points="347,100.7,351,91.7,347,95.7,343,91.7,347,100.7" style="stroke:#A80036;stroke-width:1.0;"/><!--MD5=[65f41a577799e7c2373664f4d726a3e9]
link E0 to E3--><path d="M372.87,34.55 C407.81,51.5 470.34,81.83 510.46,101.29 " fill="none" id="E0-to-E3" style="stroke:#A80036;stroke-width:1.0;"/><polygon fill="#A80036" points="515.24,103.61,508.892,96.0798,510.7425,101.4255,505.3968,103.2759,515.24,103.61" style="stroke:#A80036;stroke-width:1.0;"/><!--MD5=[98850f5c7c21ff86fc9dceb01966f96b]
@startuml "Apply"

skinparam usecase {
BackgroundColor transparent
shadowing false
}
(E: Event)

(E0: Apply)/ as E0 
(E1: Version Control with git)/ as E1 

(E2: Github Projects)/ as E2
(E3: Intro to Trello)/ as E3 


E0 - -> E1

E0 - -> E2
E0 - -> E3




@enduml

PlantUML version 1.2022.0(Tue Jan 11 17:16:42 WEST 2022)
(GPL source distribution)
Java Runtime: OpenJDK Runtime Environment
JVM: OpenJDK 64-Bit Server VM
Default Encoding: UTF-8
Language: fr
Country: FR
--></g></svg>