<?xml version="1.0" encoding="UTF-8" standalone="no"?><svg xmlns="http://www.w3.org/2000/svg" xmlns:xlink="http://www.w3.org/1999/xlink" contentScriptType="application/ecmascript" contentStyleType="text/css" height="146px" preserveAspectRatio="none" style="width:910px;height:146px;background:#FFFFFF;" version="1.1" viewBox="0 0 910 146" width="910px" zoomAndPan="magnify"><defs/><g><ellipse cx="317.6007" cy="20.715" rx="52.6007" ry="14.715" style="stroke:#A80036;stroke-width:1.5;fill:none;"/><text fill="#000000" font-family="sans-serif" font-size="14" lengthAdjust="spacing" textLength="57" x="286.1007" y="24.4626">E: Event</text><ellipse cx="456.6079" cy="20.7016" rx="51.1079" ry="14.7016" style="stroke:#A80036;stroke-width:1.5;fill:none;"/><text fill="#000000" font-family="sans-serif" font-size="14" lengthAdjust="spacing" textLength="55" x="426.1079" y="24.4492">Manage</text><line style="stroke:#A80036;stroke-width:1.5;" x1="503.6422" x2="487.18" y1="15.5766" y2="32.0389"/><ellipse cx="108.7042" cy="117.9408" rx="102.7042" ry="22.9408" style="stroke:#A80036;stroke-width:1.5;fill:none;"/><text fill="#000000" font-family="sans-serif" font-size="14" lengthAdjust="spacing" textLength="170" x="23.7042" y="120.7875">E1: Project Management</text><line style="stroke:#A80036;stroke-width:1.5;" x1="203.2224" x2="179.3441" y1="109.9437" y2="133.822"/><ellipse cx="342.4095" cy="118.0819" rx="95.9095" ry="21.5819" style="stroke:#A80036;stroke-width:1.5;fill:none;"/><text fill="#000000" font-family="sans-serif" font-size="14" lengthAdjust="spacing" textLength="155" x="264.9095" y="120.9286">E2: Task Management</text><line style="stroke:#A80036;stroke-width:1.5;" x1="430.6746" x2="408.1634" y1="110.5585" y2="133.0697"/><ellipse cx="570.3591" cy="118.1718" rx="96.3591" ry="21.6718" style="stroke:#A80036;stroke-width:1.5;fill:none;"/><text fill="#000000" font-family="sans-serif" font-size="14" lengthAdjust="spacing" textLength="156" x="492.3591" y="121.0185">E3: Time Management</text><line style="stroke:#A80036;stroke-width:1.5;" x1="659.038" x2="636.4363" y1="110.617" y2="133.2187"/><ellipse cx="803.3371" cy="118.1674" rx="101.3371" ry="22.6674" style="stroke:#A80036;stroke-width:1.5;fill:none;"/><text fill="#000000" font-family="sans-serif" font-size="14" lengthAdjust="spacing" textLength="167" x="719.8371" y="121.0141">E4: Agile Methodologies</text><line style="stroke:#A80036;stroke-width:1.5;" x1="896.5971" x2="872.9939" y1="110.2656" y2="133.8687"/><!--MD5=[eafd6081afc775571d539063ef63995e]
link E0 to E1--><path d="M421.54,31.09 C364.39,46.78 250,78.17 176.45,98.35 " fill="none" id="E0-to-E1" style="stroke:#A80036;stroke-width:1.0;"/><polygon fill="#A80036" points="171.23,99.79,180.9687,101.2591,176.0508,98.4636,178.8464,93.5457,171.23,99.79" style="stroke:#A80036;stroke-width:1.0;"/><!--MD5=[78140ea141f4238fa3437051705103f0]
link E0 to E2--><path d="M441.13,34.38 C423.05,49.53 392.68,74.96 370.41,93.62 " fill="none" id="E0-to-E2" style="stroke:#A80036;stroke-width:1.0;"/><polygon fill="#A80036" points="366.35,97.02,375.8148,94.2966,370.1794,93.805,370.6709,88.1696,366.35,97.02" style="stroke:#A80036;stroke-width:1.0;"/><!--MD5=[65f41a577799e7c2373664f4d726a3e9]
link E0 to E3--><path d="M471.87,34.38 C489.95,49.53 520.32,74.96 542.59,93.62 " fill="none" id="E0-to-E3" style="stroke:#A80036;stroke-width:1.0;"/><polygon fill="#A80036" points="546.65,97.02,542.3291,88.1696,542.8206,93.805,537.1852,94.2966,546.65,97.02" style="stroke:#A80036;stroke-width:1.0;"/><!--MD5=[e71a76939cfa172f7562cc8285d45297]
link E0 to E4--><path d="M491.36,31.09 C548.59,46.85 663.42,78.45 736.71,98.62 " fill="none" id="E0-to-E4" style="stroke:#A80036;stroke-width:1.0;"/><polygon fill="#A80036" points="741.92,100.05,734.3084,93.7999,737.1002,98.7199,732.1802,101.5117,741.92,100.05" style="stroke:#A80036;stroke-width:1.0;"/><!--MD5=[f140ca699537de3a09f159e9d6ad3647]
@startuml "Manage"

skinparam usecase {
BackgroundColor transparent
shadowing false
}
(E: Event)

(Manage)/ as E0 
(E1: Project Management)/ as E1 

(E2: Task Management)/ as E2
(E3: Time Management)/ as E3 
(E4: Agile Methodologies)/ as E4 


E0 - -> E1

E0 - -> E2
E0 - -> E3
E0 - -> E4




@enduml

PlantUML version 1.2022.0(Tue Jan 11 17:16:42 WEST 2022)
(GPL source distribution)
Java Runtime: OpenJDK Runtime Environment
JVM: OpenJDK 64-Bit Server VM
Default Encoding: UTF-8
Language: fr
Country: FR
--></g></svg>