<?xml version="1.0" encoding="UTF-8" standalone="no"?><svg xmlns="http://www.w3.org/2000/svg" xmlns:xlink="http://www.w3.org/1999/xlink" contentScriptType="application/ecmascript" contentStyleType="text/css" height="251px" preserveAspectRatio="none" style="width:584px;height:251px;background:#FFFFFF;" version="1.1" viewBox="0 0 584 251" width="584px" zoomAndPan="magnify"><defs/><g><ellipse cx="92.1007" cy="31.215" rx="52.6007" ry="14.715" style="stroke:#A80036;stroke-width:1.5;fill:none;"/><text fill="#000000" font-family="sans-serif" font-size="14" lengthAdjust="spacing" textLength="57" x="60.6007" y="34.9626">E: Event</text><ellipse cx="291.8717" cy="30.8743" rx="112.3717" ry="24.8743" style="stroke:#A80036;stroke-width:1.5;fill:none;"/><text fill="#000000" font-family="sans-serif" font-size="14" lengthAdjust="spacing" textLength="191" x="196.3717" y="33.721">E0: ElevateEventsSeries Init</text><line style="stroke:#A80036;stroke-width:1.5;" x1="395.287" x2="369.4628" y1="22.2032" y2="48.0273"/><ellipse cx="291.9534" cy="130.5556" rx="38.4534" ry="14.5556" style="stroke:#A80036;stroke-width:1.5;fill:none;"/><text fill="#000000" font-family="sans-serif" font-size="14" lengthAdjust="spacing" textLength="38" x="271.0903" y="134.0095">Think</text><line style="stroke:#A80036;stroke-width:1.5;" x1="327.3419" x2="309.7537" y1="125.4815" y2="143.0697"/><ellipse cx="94.7915" cy="225.1583" rx="88.7915" ry="20.1583" style="stroke:#A80036;stroke-width:1.5;fill:none;"/><text fill="#000000" font-family="sans-serif" font-size="14" lengthAdjust="spacing" textLength="139" x="25.2915" y="228.005">E2: Design Thinking</text><line style="stroke:#A80036;stroke-width:1.5;" x1="176.5059" x2="155.4261" y1="218.1311" y2="239.2109"/><ellipse cx="291.8073" cy="224.8615" rx="72.3073" ry="16.8615" style="stroke:#A80036;stroke-width:1.5;fill:none;"/><text fill="#000000" font-family="sans-serif" font-size="14" lengthAdjust="spacing" textLength="99" x="239.3073" y="228.609">E3: UX Design</text><line style="stroke:#A80036;stroke-width:1.5;" x1="358.3514" x2="340.5833" y1="218.9836" y2="236.7517"/><ellipse cx="489.2318" cy="225.2464" rx="89.2318" ry="20.2464" style="stroke:#A80036;stroke-width:1.5;fill:none;"/><text fill="#000000" font-family="sans-serif" font-size="14" lengthAdjust="spacing" textLength="140" x="419.2318" y="228.093">E4: Softawre Design</text><line style="stroke:#A80036;stroke-width:1.5;" x1="571.3515" x2="550.1832" y1="218.1885" y2="239.3568"/><!--MD5=[eafd6081afc775571d539063ef63995e]
link E0 to E1--><path d="M292,56.1 C292,73.02 292,95.32 292,110.88 " fill="none" id="E0-to-E1" style="stroke:#A80036;stroke-width:1.0;"/><polygon fill="#A80036" points="292,115.88,296,106.88,292,110.88,288,106.88,292,115.88" style="stroke:#A80036;stroke-width:1.0;"/><!--MD5=[1f1cd8e6dd4c1b2ca2aaccc9b9bcea6e]
link E1 to E2--><path d="M269.02,142.29 C236.64,157.5 177.04,185.48 136.72,204.41 " fill="none" id="E1-to-E2" style="stroke:#A80036;stroke-width:1.0;"/><polygon fill="#A80036" points="131.91,206.67,141.7567,206.4616,136.4351,204.5431,138.3536,199.2215,131.91,206.67" style="stroke:#A80036;stroke-width:1.0;"/><!--MD5=[5a52c8b875856e813bbf7898a393ae67]
link E1 to E3--><path d="M292,145.15 C292,160.27 292,184.85 292,202.55 " fill="none" id="E1-to-E3" style="stroke:#A80036;stroke-width:1.0;"/><polygon fill="#A80036" points="292,207.8,296,198.8,292,202.8,288,198.8,292,207.8" style="stroke:#A80036;stroke-width:1.0;"/><!--MD5=[ee384bb554873b72f85793eae40e290c]
link E1 to E4--><path d="M314.98,142.29 C347.36,157.5 406.96,185.48 447.28,204.41 " fill="none" id="E1-to-E4" style="stroke:#A80036;stroke-width:1.0;"/><polygon fill="#A80036" points="452.09,206.67,445.6464,199.2215,447.5649,204.5431,442.2433,206.4616,452.09,206.67" style="stroke:#A80036;stroke-width:1.0;"/><!--MD5=[572401ce3afb300188910df1facb5709]
@startuml "Think"

skinparam usecase {
BackgroundColor transparent
shadowing false
}
(E: Event)

(E0: ElevateEventsSeries Init)/ as E0
(Think)/ as E1 

(E2: Design Thinking)/ as E2

(E3: UX Design)/ as E3
(E4: Softawre Design)/ as E4


E0 - -> E1

E1 - -> E2
E1 - -> E3
E1 - -> E4




@enduml

PlantUML version 1.2022.0(Tue Jan 11 17:16:42 WEST 2022)
(GPL source distribution)
Java Runtime: OpenJDK Runtime Environment
JVM: OpenJDK 64-Bit Server VM
Default Encoding: UTF-8
Language: fr
Country: FR
--></g></svg>