<?xml version="1.0" encoding="UTF-8" standalone="no"?><svg xmlns="http://www.w3.org/2000/svg" xmlns:xlink="http://www.w3.org/1999/xlink" contentScriptType="application/ecmascript" contentStyleType="text/css" height="152px" preserveAspectRatio="none" style="width:424px;height:152px;background:#FFFFFF;" version="1.1" viewBox="0 0 424 152" width="424px" zoomAndPan="magnify"><defs/><g><ellipse cx="58.6007" cy="25.215" rx="52.6007" ry="14.715" style="stroke:#A80036;stroke-width:1.5;fill:none;"/><text fill="#000000" font-family="sans-serif" font-size="14" lengthAdjust="spacing" textLength="57" x="27.1007" y="28.9626">E: Event</text><ellipse cx="229.5656" cy="25.1131" rx="83.5656" ry="19.1131" style="stroke:#A80036;stroke-width:1.5;fill:none;"/><text fill="#000000" font-family="sans-serif" font-size="14" lengthAdjust="spacing" textLength="127" x="165.6623" y="28.0974">EES Communicate</text><line style="stroke:#A80036;stroke-width:1.5;" x1="306.4706" x2="286.4413" y1="18.4503" y2="38.4796"/><ellipse cx="122.5118" cy="125.4024" rx="95.0118" ry="21.4024" style="stroke:#A80036;stroke-width:1.5;fill:none;"/><text fill="#000000" font-family="sans-serif" font-size="14" lengthAdjust="spacing" textLength="153" x="46.0118" y="128.249">E1: Personal Branding</text><line style="stroke:#A80036;stroke-width:1.5;" x1="209.9508" x2="187.6201" y1="117.9415" y2="140.2722"/><ellipse cx="335.712" cy="125.4424" rx="82.712" ry="18.9424" style="stroke:#A80036;stroke-width:1.5;fill:none;"/><text fill="#000000" font-family="sans-serif" font-size="14" lengthAdjust="spacing" textLength="125" x="272.5208" y="128.5215">E2: Personal Skills</text><line style="stroke:#A80036;stroke-width:1.5;" x1="411.8315" x2="391.9738" y1="118.8391" y2="138.6968"/><!--MD5=[eafd6081afc775571d539063ef63995e]
link E0 to E1--><path d="M210.37,43.61 C193.01,59.59 167.29,83.27 148.15,100.89 " fill="none" id="E0-to-E1" style="stroke:#A80036;stroke-width:1.0;"/><polygon fill="#A80036" points="144.42,104.33,153.754,101.1873,148.1022,100.9475,148.342,95.2957,144.42,104.33" style="stroke:#A80036;stroke-width:1.0;"/><!--MD5=[78140ea141f4238fa3437051705103f0]
link E0 to E2--><path d="M248.45,43.61 C266.43,60.31 293.47,85.44 312.63,103.25 " fill="none" id="E0-to-E2" style="stroke:#A80036;stroke-width:1.0;"/><polygon fill="#A80036" points="316.36,106.71,312.4745,97.66,312.6915,103.3127,307.0388,103.5296,316.36,106.71" style="stroke:#A80036;stroke-width:1.0;"/><!--MD5=[dc566252eee4241c6a8992265bba1b63]
@startuml "EESCommunicate"

skinparam usecase {
BackgroundColor transparent
shadowing false
}
(E: Event)

(EES Communicate)/ as E0 
(E1: Personal Branding)/ as E1 

(E2: Personal Skills)/ as E2



E0 - -> E1

E0 - -> E2





@endum

PlantUML version 1.2022.0(Tue Jan 11 17:16:42 WEST 2022)
(GPL source distribution)
Java Runtime: OpenJDK Runtime Environment
JVM: OpenJDK 64-Bit Server VM
Default Encoding: UTF-8
Language: fr
Country: FR
--></g></svg>