<?xml version="1.0" encoding="UTF-8" standalone="no"?><svg xmlns="http://www.w3.org/2000/svg" xmlns:xlink="http://www.w3.org/1999/xlink" contentScriptType="application/ecmascript" contentStyleType="text/css" height="252px" preserveAspectRatio="none" style="width:584px;height:252px;background:#FFFFFF;" version="1.1" viewBox="0 0 584 252" width="584px" zoomAndPan="magnify"><defs/><g><ellipse cx="92.1007" cy="31.215" rx="52.6007" ry="14.715" style="stroke:#A80036;stroke-width:1.5;fill:none;"/><text fill="#000000" font-family="sans-serif" font-size="14" lengthAdjust="spacing" textLength="57" x="60.6007" y="34.9626">E: Event</text><ellipse cx="291.8717" cy="30.8743" rx="112.3717" ry="24.8743" style="stroke:#A80036;stroke-width:1.5;fill:none;"/><text fill="#000000" font-family="sans-serif" font-size="14" lengthAdjust="spacing" textLength="191" x="196.3717" y="33.721">E0: ElevateEventsSeries Init</text><line style="stroke:#A80036;stroke-width:1.5;" x1="395.287" x2="369.4628" y1="22.2032" y2="48.0273"/><ellipse cx="292.0731" cy="130.7619" rx="58.5731" ry="14.7619" style="stroke:#A80036;stroke-width:1.5;fill:none;"/><text fill="#000000" font-family="sans-serif" font-size="14" lengthAdjust="spacing" textLength="65" x="256.5731" y="134.5095">EESThink</text><line style="stroke:#A80036;stroke-width:1.5;" x1="345.9777" x2="330.0692" y1="125.6159" y2="141.5243"/><ellipse cx="94.7915" cy="226.1583" rx="88.7915" ry="20.1583" style="stroke:#A80036;stroke-width:1.5;fill:none;"/><text fill="#000000" font-family="sans-serif" font-size="14" lengthAdjust="spacing" textLength="139" x="25.2915" y="229.005">E2: Design Thinking</text><line style="stroke:#A80036;stroke-width:1.5;" x1="176.5059" x2="155.4261" y1="219.1311" y2="240.2109"/><ellipse cx="291.8073" cy="225.8615" rx="72.3073" ry="16.8615" style="stroke:#A80036;stroke-width:1.5;fill:none;"/><text fill="#000000" font-family="sans-serif" font-size="14" lengthAdjust="spacing" textLength="99" x="239.3073" y="229.609">E3: UX Design</text><line style="stroke:#A80036;stroke-width:1.5;" x1="358.3514" x2="340.5833" y1="219.9836" y2="237.7517"/><ellipse cx="489.2318" cy="226.2464" rx="89.2318" ry="20.2464" style="stroke:#A80036;stroke-width:1.5;fill:none;"/><text fill="#000000" font-family="sans-serif" font-size="14" lengthAdjust="spacing" textLength="140" x="419.2318" y="229.093">E4: Softawre Design</text><line style="stroke:#A80036;stroke-width:1.5;" x1="571.3515" x2="550.1832" y1="219.1885" y2="240.3568"/><!--MD5=[eafd6081afc775571d539063ef63995e]
link E0 to E1--><path d="M292,56.22 C292,73.03 292,95.11 292,110.72 " fill="none" id="E0-to-E1" style="stroke:#A80036;stroke-width:1.0;"/><polygon fill="#A80036" points="292,115.75,296,106.75,292,110.75,288,106.75,292,115.75" style="stroke:#A80036;stroke-width:1.0;"/><!--MD5=[1f1cd8e6dd4c1b2ca2aaccc9b9bcea6e]
link E1 to E2--><path d="M265.43,144.54 C232.33,160.17 175.4,187.05 136.52,205.4 " fill="none" id="E1-to-E2" style="stroke:#A80036;stroke-width:1.0;"/><polygon fill="#A80036" points="131.87,207.6,141.7164,207.3796,136.3925,205.4676,138.3045,200.1436,131.87,207.6" style="stroke:#A80036;stroke-width:1.0;"/><!--MD5=[5a52c8b875856e813bbf7898a393ae67]
link E1 to E3--><path d="M292,146.12 C292,161.41 292,185.97 292,203.62 " fill="none" id="E1-to-E3" style="stroke:#A80036;stroke-width:1.0;"/><polygon fill="#A80036" points="292,208.86,296,199.86,292,203.86,288,199.86,292,208.86" style="stroke:#A80036;stroke-width:1.0;"/><!--MD5=[ee384bb554873b72f85793eae40e290c]
link E1 to E4--><path d="M318.57,144.54 C351.67,160.17 408.6,187.05 447.48,205.4 " fill="none" id="E1-to-E4" style="stroke:#A80036;stroke-width:1.0;"/><polygon fill="#A80036" points="452.13,207.6,445.6955,200.1436,447.6075,205.4676,442.2836,207.3796,452.13,207.6" style="stroke:#A80036;stroke-width:1.0;"/><!--MD5=[0e975ff0861374c02b5eb35cd2507c4e]
@startuml "EESThink"

skinparam usecase {
BackgroundColor transparent
shadowing false
}
(E: Event)

(E0: ElevateEventsSeries Init)/ as E0
(EESThink)/ as E1 

(E2: Design Thinking)/ as E2

(E3: UX Design)/ as E3
(E4: Softawre Design)/ as E4


E0 - -> E1

E1 - -> E2
E1 - -> E3
E1 - -> E4




@enduml

PlantUML version 1.2022.0(Tue Jan 11 17:16:42 WEST 2022)
(GPL source distribution)
Java Runtime: OpenJDK Runtime Environment
JVM: OpenJDK 64-Bit Server VM
Default Encoding: UTF-8
Language: fr
Country: FR
--></g></svg>